# xmcd CD database file
#
# Track frame offsets:
#	150
#	19214
#	38546
#	55697
#	75830
#	104083
#	122210
#	144131
#	165231
#	184585
#
# Disc length: 2681 seconds
#
# Revision: 1
# Processed by: cddbd v1.5.2PL0 Copyright (c) Steve Scherf et al.
# Submitted via: CDex 1.70beta3
#
DISCID=6e0a770a
DTITLE=SOPHIA - 2007
DYEAR=2007
DGENRE=J-POP
TTITLE0=燃え尽きる太陽
TTITLE1=モラトリアム人間
TTITLE2=bell
TTITLE3=easy street story
TTITLE4=君と月の光
TTITLE5=青空の破片
TTITLE6=stain
TTITLE7=in the future
TTITLE8=星
TTITLE9=Sen-
EXTD=YEAR: 2007
EXTT0=
EXTT1=
EXTT2=
EXTT3=
EXTT4=
EXTT5=
EXTT6=
EXTT7=
EXTT8=
EXTT9=
PLAYORDER=
